<svg xmlns="http://www.w3.org/2000/svg" xmlns:xlink="http://www.w3.org/1999/xlink" width="1920" zoomAndPan="magnify" viewBox="0 0 1440 809.999993" height="1080" preserveAspectRatio="xMidYMid meet" version="1.0"><defs><clipPath id="b5967134fa"><path d="M 488 452 L 720 452 L 720 761.0625 L 488 761.0625 Z M 488 452 " clip-rule="nonzero"/></clipPath><clipPath id="fc062304cc"><path d="M 719 452 L 961 452 L 961 761.0625 L 719 761.0625 Z M 719 452 " clip-rule="nonzero"/></clipPath><clipPath id="e586cfbeed"><path d="M 507 49.03125 L 933 49.03125 L 933 607 L 507 607 Z M 507 49.03125 " clip-rule="nonzero"/></clipPath></defs><g clip-path="url(#b5967134fa)"><path fill="#7cb22f" d="M 585.699219 452.578125 L 488.398438 674.746094 L 719.175781 761.042969 L 719.714844 478.285156 L 585.699219 452.578125 " fill-opacity="1" fill-rule="nonzero"/></g><path fill="#6ea52c" d="M 459.027344 472.777344 L 200.761719 741.335938 C 195.511719 746.792969 200.835938 755.683594 208.125 753.636719 L 488.402344 674.746094 L 585.699219 452.578125 L 459.027344 472.777344 " fill-opacity="1" fill-rule="nonzero"/><path fill="#7cb22f" d="M 1238.925781 731.078125 L 984.074219 472.777344 L 850.066406 452.582031 L 960.210938 674.75 L 1231.8125 743.496094 C 1239.101562 745.339844 1244.207031 736.429688 1238.925781 731.078125 " fill-opacity="1" fill-rule="nonzero"/><g clip-path="url(#fc062304cc)"><path fill="#6ea52c" d="M 719.714844 478.285156 L 719.167969 761.042969 L 960.210938 674.75 L 850.0625 452.578125 L 719.714844 478.285156 " fill-opacity="1" fill-rule="nonzero"/></g><path fill="#dddcdb" d="M 380.539062 554.394531 L 397.972656 536.265625 L 561.164062 508.597656 L 555.203125 522.203125 L 380.539062 554.394531 " fill-opacity="1" fill-rule="nonzero"/><path fill="#dddcdb" d="M 722.199219 578.789062 L 716.136719 565.277344 L 871.371094 495.566406 L 877.953125 508.84375 L 722.199219 578.789062 " fill-opacity="1" fill-rule="nonzero"/><path fill="#dddcdb" d="M 524.910156 591.371094 L 290.636719 647.878906 L 271.367188 667.914062 L 424.886719 628.875 L 371.4375 707.667969 L 393.628906 701.335938 L 446.511719 623.378906 L 518.964844 604.953125 L 524.910156 591.371094 " fill-opacity="1" fill-rule="nonzero"/><path fill="#f2f2f2" d="M 1140.226562 631.042969 L 1007.324219 604.578125 L 951.476562 520.375 L 1045.578125 535.132812 L 1029.542969 518.863281 L 871.371094 495.566406 L 877.953125 508.84375 L 931.640625 517.265625 L 986.851562 600.5 L 916.449219 586.480469 L 924.097656 601.910156 L 1158.765625 649.835938 L 1140.226562 631.042969 " fill-opacity="1" fill-rule="nonzero"/><path fill="#dddcdb" d="M 924.097656 601.910156 L 916.445312 586.480469 L 719.355469 666.105469 L 719.355469 682.050781 L 814.664062 644.742188 L 838.570312 718.070312 L 852.652344 713.480469 L 828.472656 639.335938 L 924.097656 601.910156 " fill-opacity="1" fill-rule="nonzero"/><path fill="#f2f2f2" d="M 612.605469 542.390625 L 716.710938 579.015625 L 721.628906 565.046875 L 561.164062 508.597656 L 555.207031 522.203125 L 598.632812 537.476562 L 573.328125 609.980469 L 524.914062 591.371094 L 518.96875 604.949219 L 719.355469 682.050781 L 719.355469 666.105469 L 587.15625 615.292969 L 612.605469 542.390625 " fill-opacity="1" fill-rule="nonzero"/><g clip-path="url(#e586cfbeed)"><path fill="#e33824" d="M 932.359375 261.691406 C 932.359375 389.175781 749.039062 606.8125 719.707031 606.8125 C 694.558594 606.8125 507.078125 401.96875 507.078125 261.691406 C 507.078125 144.238281 602.28125 49.019531 719.71875 49.019531 C 837.15625 49.019531 932.359375 144.238281 932.359375 261.691406 " fill-opacity="1" fill-rule="nonzero"/></g><path fill="#f2f2f2" d="M 850.277344 261.691406 C 850.277344 333.808594 791.824219 392.269531 719.714844 392.269531 C 647.609375 392.269531 589.152344 333.808594 589.152344 261.691406 C 589.152344 189.578125 647.609375 131.113281 719.714844 131.113281 C 791.824219 131.113281 850.277344 189.578125 850.277344 261.691406 " fill-opacity="1" fill-rule="nonzero"/></svg>